<svg width="1280" height="720" xmlns="http://www.w3.org/2000/svg" xmlns:xlink="http://www.w3.org/1999/xlink" overflow="hidden"><defs><clipPath id="clip0"><rect x="0" y="0" width="1280" height="720"/></clipPath></defs><g clip-path="url(#clip0)"><rect x="0" y="0" width="1280" height="720" fill="#FFFFFF"/><rect x="329.5" y="509.5" width="311" height="58" stroke="#FFFFFF" stroke-width="1.33333" stroke-miterlimit="8" fill="#4472C4"/><text fill="#FFFFFF" font-family="Calibri,Calibri_MSFontService,sans-serif" font-weight="400" font-size="25" transform="translate(427.997 545)">Interpreter</text><path d="M640.5 478.979 496.25 478.979 496.25 488 507.5 488 485 510.5 462.5 488 473.75 488 473.75 478.979 329.5 478.979 329.5 420.5 640.5 420.5Z" stroke="#FFFFFF" stroke-width="1.33333" stroke-miterlimit="8" fill="#4472C4" fill-rule="evenodd"/><text fill="#FFFFFF" font-family="Calibri,Calibri_MSFontService,sans-serif" font-weight="400" font-size="25" transform="translate(446.757 456)">Symbol</text><path d="M640.5 389.979 496.25 389.979 496.25 399 507.5 399 485 421.5 462.5 399 473.75 399 473.75 389.979 329.5 389.979 329.5 331.5 640.5 331.5Z" stroke="#FFFFFF" stroke-width="1.33333" stroke-miterlimit="8" fill="#4472C4" fill-rule="evenodd"/><text fill="#FFFFFF" font-family="Calibri,Calibri_MSFontService,sans-serif" font-weight="400" font-size="25" transform="translate(465.28 367)">AST</text><path d="M640.5 300.979 496.25 300.979 496.25 310 507.5 310 485 332.5 462.5 310 473.75 310 473.75 300.979 329.5 300.979 329.5 242.5 640.5 242.5Z" stroke="#FFFFFF" stroke-width="1.33333" stroke-miterlimit="8" fill="#4472C4" fill-rule="evenodd"/><text fill="#FFFFFF" font-family="Calibri,Calibri_MSFontService,sans-serif" font-weight="400" font-size="25" transform="translate(452.307 278)">Parser</text><path d="M640.5 211.979 496.25 211.979 496.25 221 507.5 221 485 243.5 462.5 221 473.75 221 473.75 211.979 329.5 211.979 329.5 153.5 640.5 153.5Z" stroke="#FFFFFF" stroke-width="1.33333" stroke-miterlimit="8" fill="#4472C4" fill-rule="evenodd"/><text fill="#FFFFFF" font-family="Calibri,Calibri_MSFontService,sans-serif" font-weight="400" font-size="25" transform="translate(457.207 189)">Lexer</text><rect x="892.5" y="423.5" width="214" height="144" stroke="#2F528F" stroke-width="1.33333" stroke-miterlimit="8" fill="#4472C4"/><text fill="#FFFFFF" font-family="Calibri,Calibri_MSFontService,sans-serif" font-weight="400" font-size="24" transform="translate(938.543 503)">Symboltable</text><path d="M640.5 433.167 865.833 433.167 865.833 443.833 640.5 443.833ZM860.5 422.5 892.5 438.5 860.5 454.5Z" fill="#4472C4"/><text font-family="Calibri,Calibri_MSFontService,sans-serif" font-weight="400" font-size="24" transform="translate(672.6 417)">Binding/</text><text font-family="Calibri,Calibri_MSFontService,sans-serif" font-weight="400" font-size="24" transform="translate(756.12 417)">Resolving</text><path d="M2.22194e-06-5.33333 225.333-5.33324 225.333 5.33343-2.22194e-06 5.33333ZM220-15.9999 252 0.000104987 220 16.0001Z" fill="#4472C4" transform="matrix(-1 0 0 1 892.5 461.5)"/><path d="M640.5 521.167 865.833 521.167 865.833 531.833 640.5 531.833ZM860.5 510.5 892.5 526.5 860.5 542.5Z" fill="#4472C4"/><path d="M2.22194e-06-5.33333 225.333-5.33324 225.333 5.33343-2.22194e-06 5.33333ZM220-15.9999 252 0.000104987 220 16.0001Z" fill="#4472C4" transform="matrix(-1 0 0 1 892.5 549.5)"/><path d="M705.5 59.6669C705.5 51.8428 711.843 45.5001 719.667 45.5001L863.333 45.5001C871.157 45.5001 877.5 51.8428 877.5 59.6669L877.5 116.333C877.5 124.157 871.157 130.5 863.333 130.5L719.667 130.5C711.843 130.5 705.5 124.157 705.5 116.333Z" stroke="#2F528F" stroke-width="1.33333" stroke-miterlimit="8" fill="#4472C4" fill-rule="evenodd"/><text fill="#FFFFFF" font-family="Calibri,Calibri_MSFontService,sans-serif" font-weight="400" font-size="24" transform="translate(718.753 80)">a = 1 + 2</text><text fill="#FFFFFF" font-family="Calibri,Calibri_MSFontService,sans-serif" font-weight="400" font-size="24" transform="translate(718.753 109)">print</text><text fill="#FFFFFF" font-family="Calibri,Calibri_MSFontService,sans-serif" font-weight="400" font-size="24" transform="translate(765.7 109)">(a)</text><path d="M0.0363576-1.99967 20.698-1.624 41.2662-0.49526 61.5191 1.26041 81.2132 3.64377 100.341 6.65409 118.598 10.1048 135.991 14.1232 152.196 18.5828 167.092 23.3597 174.029 25.945 180.585 28.5297 186.716 31.2475 192.47 34.03 197.795 36.8822 202.642 39.7523 206.992 42.7591 210.908 45.7761 214.302 48.8438 217.242 52.1936 218.741 55.2568 215.149 57.0159 213.766 54.192 214.059 54.6317 211.372 51.5692 211.534 51.7337 208.284 48.7962 208.404 48.8968 204.592 45.9593 204.675 46.0203 200.425 43.0828 200.544 43.1585 195.794 40.346 195.868 40.388 190.618 37.5755 190.692 37.6131 185.004 34.8631 185.064 34.8909 179.002 32.2034 179.079 32.2356 172.579 29.6731 172.614 29.6866 165.739 27.1241 165.827 27.1545 151.014 22.4045 151.094 22.4283 134.969 17.9908 135.05 18.0112 117.737 14.0112 117.816 14.0277 99.6286 10.5902 99.6891 10.6007 80.6266 7.60068 80.6972 7.61051 61.0722 5.23551 61.1398 5.24253 40.9523 3.49253 41.0154 3.497 20.5154 2.372 20.5886 2.37467-0.0363576 1.99967ZM221.85 52.143 220.483 65.4897 210.626 56.3884Z" fill="#4472C4" transform="matrix(-1 1.22465e-16 1.22465e-16 1 705.483 87)"/><path d="M705.5 632.667C705.5 626.5 710.5 621.5 716.667 621.5L866.333 621.5C872.5 621.5 877.5 626.5 877.5 632.667L877.5 677.333C877.5 683.5 872.5 688.5 866.333 688.5L716.667 688.5C710.5 688.5 705.5 683.5 705.5 677.333Z" stroke="#2F528F" stroke-width="1.33333" stroke-miterlimit="8" fill="#4472C4" fill-rule="evenodd"/><text fill="#FFFFFF" font-family="Calibri,Calibri_MSFontService,sans-serif" font-weight="400" font-size="24" transform="translate(784.917 662)">3</text><text font-family="Calibri,Calibri_MSFontService,sans-serif" font-weight="400" font-size="24" transform="translate(736.6 33)">Input Code</text><text font-family="Calibri,Calibri_MSFontService,sans-serif" font-weight="400" font-size="24" transform="translate(714.6 612)">Terminal Output</text><path d="M483 567 483 567.25 482.993 567.084 483.062 567.917 483.062 569.188 483.062 570.75 483.062 570.688 483.125 572.719 483.125 575.062 483.125 575.04 483.188 580.614 483.188 587.25 483.187 587.233 483.25 594.617 483.25 602.5 483.25 610.625 483.227 610.325 483.54 612.388 483.351 611.793 484.351 613.793 484.157 613.48 485.719 615.542 485.475 615.274 487.662 617.274 487.489 617.133 490.239 619.133 490.111 619.047 493.361 621.047 493.207 620.961 497.082 622.899 497.007 622.863 501.32 624.801 501.239 624.766 506.114 626.704 506.041 626.677 511.353 628.552 511.289 628.53 517.039 630.343 516.982 630.326 523.169 632.076 523.136 632.066 529.761 633.816 529.719 633.806 536.719 635.493 536.664 635.481 551.727 638.668 551.664 638.656 568.102 641.594 568.047 641.585 585.547 644.21 585.497 644.203 604.06 646.515 604.018 646.511 623.393 648.511 623.343 648.506 643.343 650.069 643.303 650.066 663.803 651.253 663.76 651.251 684.572 652.001 684.52 652 695.503 652.11 695.463 656.11 684.454 656 663.594 655.248 643.052 654.058 623.007 652.492 603.586 650.487 584.978 648.169 567.426 645.536 550.929 642.588 535.809 639.388 528.76 637.689 522.097 635.929 515.865 634.166 510.054 632.335 504.673 630.435 499.72 628.467 495.33 626.495 491.339 624.499 487.949 622.413 485.046 620.302 482.641 618.103 480.856 615.748 479.632 613.299 479.25 610.776 479.25 602.5 479.25 594.625 479.25 594.642 479.188 587.258 479.188 580.625 479.188 580.647 479.125 575.074 479.125 572.75 479.126 572.812 479.062 570.781 479.062 569.188 479.062 568 479.069 568.166 479 567.333 479 567ZM693.544 648.09 705.483 654.21 693.423 660.09Z" fill="#4472C4"/><text font-family="Calibri,Calibri_MSFontService,sans-serif" font-weight="400" font-size="24" transform="translate(106.583 215)">Generated</text><text font-family="Calibri,Calibri_MSFontService,sans-serif" font-weight="400" font-size="24" transform="translate(106.583 244)">by</text><text font-family="Calibri,Calibri_MSFontService,sans-serif" font-weight="400" font-size="24" transform="translate(135.463 244)">ANTLR4</text><path d="M329.5 267.5C304.647 267.5 284.5 264.18 284.5 260.084L284.5 230.416C284.5 226.32 264.353 223 239.5 223 264.353 223 284.5 219.68 284.5 215.584L284.5 185.916C284.5 181.82 304.647 178.5 329.5 178.5" stroke="#4472C4" stroke-width="2.66667" stroke-miterlimit="8" fill="none" fill-rule="evenodd"/></g></svg>